<svg width="289" height="393" viewBox="0 0 289 393" fill="none" xmlns="http://www.w3.org/2000/svg">
<circle cx="144.5" cy="220.5" r="144.5" fill="#BE322F"/>
<path d="M146.912 147.288C182.048 147.288 199.616 165.72 199.616 202.584V280.92C199.616 284.376 198.56 287.16 196.448 289.272C194.528 291.384 191.84 292.44 188.384 292.44C184.928 292.44 182.144 291.384 180.032 289.272C177.92 287.16 176.864 284.376 176.864 280.92V267.096C173.216 275.352 167.648 281.784 160.16 286.392C152.672 290.808 144.032 293.016 134.24 293.016C125.216 293.016 116.864 291.192 109.184 287.544C101.696 283.896 95.744 278.808 91.328 272.28C86.912 265.752 84.704 258.552 84.704 250.68C84.704 240.12 87.392 231.96 92.768 226.2C98.144 220.248 106.976 216.024 119.264 213.528C131.552 210.84 148.64 209.496 170.528 209.496H176.864V199.992C176.864 188.472 174.464 180.024 169.664 174.648C165.056 169.272 157.472 166.584 146.912 166.584C133.856 166.584 120.608 170.136 107.168 177.24C101.984 180.504 98.336 182.136 96.224 182.136C93.92 182.136 92 181.272 90.464 179.544C88.928 177.816 88.16 175.608 88.16 172.92C88.16 170.232 88.928 167.928 90.464 166.008C92.192 163.896 94.88 161.784 98.528 159.672C105.248 155.832 112.832 152.856 121.28 150.744C129.92 148.44 138.464 147.288 146.912 147.288ZM137.408 274.584C148.928 274.584 158.336 270.744 165.632 263.064C173.12 255.192 176.864 245.112 176.864 232.824V224.472H171.68C154.784 224.472 141.92 225.24 133.088 226.776C124.256 228.12 117.92 230.52 114.08 233.976C110.432 237.24 108.608 242.136 108.608 248.664C108.608 256.152 111.296 262.392 116.672 267.384C122.24 272.184 129.152 274.584 137.408 274.584Z" fill="white"/>
</svg>
